# xmcd CD database file
#
# Track frame offsets:
#	150
#	3563
#	26572
#	43919
#	67680
#	87051
#	109522
#	127534
#	144408
#	163451
#	185315
#	204121
#	226580
#	245341
#	265064
#	283431
#	304403
#	328164
#
# Disc length: 4573 seconds
#
# Revision: 0
# Processed by: cddbd v1.5.2PL0 Copyright (c) Steve Scherf et al.
# Submitted via: CDex 1.70beta2
#
DISCID=ee11db12
DTITLE=Stevve Baker - Blues Jam
DYEAR=2009
DGENRE=Blues
TTITLE0=Tune 01
TTITLE1=Session Shuffle 02
TTITLE2=Rainy Day Blues 03
TTITLE3=Off The Top 04
TTITLE4=Funky Mardi Gras 05
TTITLE5=Doublecrossed and Blue 06
TTITLE6=Gimme a Break 07
TTITLE7=Lonesome 08
TTITLE8=Back To The Country 09
TTITLE9=Steve's Shuffle 10
TTITLE10=Been To Detroit 11
TTITLE11=5th Dimension 12
TTITLE12=Boogaloo Train 13
TTITLE13=Take Me With You When You Go 14
TTITLE14=Boogie Time 15
TTITLE15=Have Mercy On Me 16
TTITLE16=Afroinspiration 17
TTITLE17=Loose and Lazy 18
EXTD=YEAR: 2009
EXTT0=
EXTT1=
EXTT2=
EXTT3=
EXTT4=
EXTT5=
EXTT6=
EXTT7=
EXTT8=
EXTT9=
EXTT10=
EXTT11=
EXTT12=
EXTT13=
EXTT14=
EXTT15=
EXTT16=
EXTT17=
PLAYORDER=
